<svg width="118" height="88" viewBox="0 0 118 88" fill="none" xmlns="http://www.w3.org/2000/svg">
<path d="M40.399 0.0380783C35.073 0.590164 31.4357 1.43453 27.2463 3.13409C25.8174 3.71866 23.4358 4.86613 21.9961 5.68886C20.5022 6.53323 17.8392 8.35187 16.3128 9.56429C14.4292 11.069 11.1492 14.3491 9.66613 16.211C2.35909 25.38 -0.953436 36.5949 0.237341 48.1563C2.34826 68.6269 18.6294 84.9297 39.1 87.0622C47.2514 87.9066 55.2837 86.4885 62.5908 82.8945C70.8288 78.8459 77.5404 72.3832 82.0221 64.1777C82.9206 62.5431 84.0031 60.194 83.9382 60.0208C83.9165 59.945 83.635 60.3997 83.3211 61.0275C81.3184 65.022 78.9152 68.3562 75.8517 71.4198C73.9898 73.2925 72.7015 74.3967 70.8071 75.7499C61.5732 82.3316 50.0227 84.6266 38.9593 82.0718C25.7849 79.0299 15.003 69.3305 10.5755 56.535C9.2223 52.6271 8.56196 48.9249 8.44288 44.7355C8.25885 38.1321 9.5687 32.1241 12.4699 26.2244C14.5808 21.9267 17.049 18.5709 20.5996 15.1285C26.77 9.16376 34.4235 5.54813 43.3218 4.38982C45.043 4.1625 51.0835 4.19497 52.848 4.44395C56.442 4.94191 59.0942 5.6239 62.4284 6.93376C71.4133 10.4411 79.0993 17.5533 83.3319 26.246C83.6242 26.863 83.9165 27.361 83.9706 27.361C84.0356 27.361 84.0031 27.177 83.9057 26.9496C83.8083 26.7331 83.6892 26.4409 83.6459 26.311C83.4618 25.8563 82.0113 22.9984 81.5133 22.1216C80.0194 19.5019 77.5946 16.211 75.462 13.9377C68.2199 6.23012 59.4623 1.71599 48.8968 0.232933C47.7061 0.070549 41.5032 -0.0701752 40.399 0.0380783Z" fill="white"/>
<path d="M47.4352 7.84362C34.4341 8.93697 23.046 16.6987 17.3302 28.3791C16.4967 30.0679 16.4534 30.1761 16.6374 30.1761C16.7024 30.1761 16.7457 30.1112 16.7457 30.0354C16.7457 29.7864 18.4019 26.9069 19.2788 25.6295C24.1826 18.474 31.5871 13.6027 40.1282 11.8814C42.8453 11.3402 44.4799 11.1994 47.5435 11.2644C51.1591 11.3402 53.4866 11.7082 56.7233 12.6933C64.734 15.129 71.792 20.769 75.7866 27.9245L76.1979 28.6606H79.9218H83.6565L82.9204 27.2208C82.0869 25.597 80.4306 23.0531 79.164 21.4618C78.0166 20.022 74.7798 16.8069 73.3617 15.7136C67.5486 11.2103 61.3349 8.70964 54.0062 7.93022C52.6747 7.78949 48.7018 7.73536 47.4352 7.84362Z" fill="white"/>
<path d="M34.174 32.9147C33.0265 33.1853 31.9548 33.9756 31.4894 34.9065C31.2945 35.2963 25.6221 54.5544 25.6221 54.8358C25.6221 54.9333 26.4773 54.9657 29.3027 54.9657H32.9724L33.0807 54.5544C33.1456 54.3379 33.7843 51.7506 34.5096 48.817C35.2241 45.8725 35.8519 43.5126 35.9061 43.5667C35.9494 43.61 37.3566 45.8725 39.0454 48.5788C40.9398 51.6207 42.2821 53.6559 42.5528 53.9157C42.7909 54.143 43.3105 54.4786 43.6894 54.6735C44.3606 54.9982 44.4688 55.0199 45.5947 55.0199C46.7097 55.0199 46.8179 54.9982 47.3592 54.6951C47.6839 54.5219 48.1494 54.1538 48.3876 53.8724C48.6365 53.6018 50.2279 51.1552 51.9058 48.4381C53.5945 45.7101 54.991 43.491 55.0126 43.491C55.0234 43.491 55.6621 46.0133 56.4199 49.0876C57.1777 52.1728 57.8488 54.7601 57.9138 54.825C58.0437 54.9982 65.2425 55.0307 65.2425 54.8575C65.2425 54.7709 63.2073 47.7236 62.0599 43.8157C61.8542 43.1337 61.2155 40.9362 60.6418 38.9444C60.0572 36.9525 59.4943 35.1339 59.3752 34.9065C59.0613 34.2895 58.2818 33.5534 57.6107 33.2503C55.8895 32.46 54.2549 32.7956 52.9775 34.1813C52.6311 34.571 51.1047 36.92 48.9505 40.4382C47.0452 43.5451 45.4539 46.0782 45.4106 46.0566C45.3673 46.0457 43.8518 43.6209 42.0548 40.6764C40.247 37.7319 38.6124 35.1014 38.4283 34.8308C37.3675 33.2719 35.7545 32.5575 34.174 32.9147Z" fill="white"/>
<path d="M66.6499 43.9803V54.8597H76.3168H85.9838L88.0839 52.1426C89.2422 50.6487 90.2165 49.3821 90.2273 49.328C90.2489 49.2739 86.59 49.2306 81.8702 49.2306H73.4698V47.9315V46.6325L79.2288 46.6109L84.9879 46.5784L87.0771 43.8721C88.2246 42.389 89.1664 41.1333 89.1664 41.09C89.1664 41.0359 85.6374 41.0034 81.3181 41.0034H73.4698V39.8667V38.7301H79.7376H85.9946L88.0947 36.0021C89.253 34.5082 90.2165 33.2417 90.2273 33.1876C90.2489 33.1443 84.9554 33.101 78.4602 33.101H66.6499V43.9803Z" fill="white"/>
<path d="M94.3085 33.1739C93.3126 33.3904 92.728 33.8451 92.3492 34.6678L92.0894 35.2091V45.0276V54.8569H95.4452H98.801L98.8227 48.8922L98.8551 42.9383L103.618 46.922C106.238 49.1087 109.193 51.5769 110.168 52.3996C111.153 53.2331 112.203 54.045 112.495 54.2182C113.328 54.7054 114.292 54.9652 115.255 54.9652C115.97 54.9652 116.186 54.9219 116.673 54.6621C117.161 54.4023 117.312 54.2615 117.583 53.7203L117.908 53.0816L117.94 43.0899L117.973 33.0982H114.552H111.142L111.12 39.0412L111.088 44.9951L104.506 39.4959C99.7645 35.523 97.7401 33.8992 97.253 33.6611C96.322 33.2064 95.0771 33.0007 94.3085 33.1739Z" fill="white"/>
<path d="M16.5298 57.0453C16.5298 57.3159 17.569 59.481 18.3701 60.8666C23.3497 69.5268 31.5228 75.8054 41.049 78.2953C47.2735 79.919 53.7037 79.8974 59.9932 78.2411C68.5776 75.957 76.1769 70.5227 81.0699 63.1291C81.9143 61.8734 83.6463 58.8315 83.6463 58.6258C83.6463 58.5717 81.9792 58.5392 79.9441 58.5392H76.231L75.7547 59.3835C74.1093 62.2631 72.0741 64.7962 69.4111 67.286C60.1988 75.8596 46.2884 78.4143 34.4347 73.6945C26.9437 70.7068 20.9573 65.305 17.2118 58.1603C16.8437 57.4458 16.5298 56.9479 16.5298 57.0453Z" fill="white"/>
</svg>
