<svg preserveAspectRatio="none" width="100%" height="100%" overflow="visible" style="display: block;" viewBox="0 0 63 14" fill="none" xmlns="http://www.w3.org/2000/svg">
<g id="OIP 1" clip-path="url(#clip0_0_7)">
<path id="Vector" d="M0 0C20.79 0 41.58 0 63 0C63 4.62 63 9.24 63 14C42.21 14 21.42 14 0 14C0 9.38 0 4.76 0 0Z" fill="white"/>
<path id="Vector_2" d="M40.538 0C47.9504 0 55.3629 0 63 0C63 4.62 63 9.24 63 14C55.6753 14 48.3505 14 40.8038 14C40.8038 13.916 40.8038 13.832 40.8038 13.7455C40.7325 13.7376 40.6612 13.7297 40.5878 13.7216C40.0366 13.541 39.5977 13.2003 39.3203 12.7076C39.1746 12.2342 39.1696 11.7813 39.1702 11.2923C39.1694 11.1879 39.1685 11.0835 39.1675 10.9759C39.165 10.6318 39.1645 10.2878 39.1642 9.94368C39.1634 9.70387 39.1625 9.46406 39.1615 9.22426C39.1599 8.72196 39.1594 8.21967 39.1596 7.71737C39.1596 7.07441 39.156 6.43151 39.1514 5.78857C39.1485 5.29341 39.1479 4.79826 39.1481 4.3031C39.1478 4.06608 39.1466 3.82906 39.1445 3.59204C39.1419 3.26029 39.1427 2.9287 39.1443 2.59694C39.1428 2.49953 39.1413 2.40212 39.1398 2.30175C39.1498 1.48327 39.4699 1.05324 40.0229 0.461364C40.2722 0.254545 40.2722 0.254545 40.538 0.254545C40.538 0.170545 40.538 0.0865455 40.538 0Z" fill="#A6192E"/>
<path id="Vector_3" d="M28.0443 2.67273C28.7461 2.67273 29.4478 2.67273 30.1709 2.67273C30.1709 3.05073 30.1709 3.42873 30.1709 3.81818C30.2384 3.75682 30.3059 3.69546 30.3754 3.63224C31.2623 2.85295 31.9141 2.61688 33.1199 2.64041C34.4821 2.75817 35.4424 3.42196 36.3066 4.40483C37.1567 5.46479 37.2402 6.56448 37.1263 7.86953C36.9579 8.9254 36.2456 9.82284 35.4873 10.5716C34.5161 11.1722 33.3189 11.5115 32.1646 11.3273C31.5806 11.1414 31.0807 10.8899 30.5696 10.5636C30.5032 10.5 30.5032 10.5 30.4367 10.4364C30.3837 10.3856 30.3703 10.3728 30.3038 10.3091C30.3038 11.5271 30.3038 12.7451 30.3038 14C29.5582 14 28.8125 14 28.0443 14C28.0443 10.262 28.0443 6.524 28.0443 2.67273Z" fill="#A6192E"/>
<path id="Vector_4" d="M8.37342 0C9.11905 0 9.86468 0 10.6329 0C10.6987 1.827 10.6987 1.827 10.7658 3.69091C11.1606 3.37591 11.1606 3.37591 11.5633 3.05455C12.2423 2.63636 13.0486 2.70456 13.8228 2.8C14.6665 3.09617 15.2442 3.55659 15.6919 4.29893C16.0718 5.16151 16.1185 5.91302 16.1082 6.84041C16.1079 6.9691 16.1075 7.09779 16.1071 7.23037C16.1056 7.63882 16.1023 8.04724 16.0989 8.45568C16.0976 8.73368 16.0963 9.01167 16.0953 9.28967C16.0923 9.96888 16.0878 10.6481 16.0823 11.3273C15.3366 11.3273 14.591 11.3273 13.8228 11.3273C13.8208 11.1739 13.8189 11.0205 13.8169 10.8624C13.8092 10.2905 13.7989 9.71863 13.7879 9.14676C13.7835 8.89977 13.7798 8.65276 13.7767 8.40575C13.7723 8.04964 13.7653 7.69364 13.7579 7.33757C13.757 7.22803 13.7562 7.11848 13.7553 7.00562C13.738 6.31985 13.6325 5.82537 13.2911 5.21818C12.9655 5.06229 12.7406 5.06963 12.3774 5.06705C12.2626 5.06524 12.1478 5.06344 12.0295 5.06158C11.657 5.09436 11.4671 5.13393 11.1646 5.34545C10.7259 6.00501 10.7036 6.56839 10.6978 7.32514C10.6954 7.43988 10.693 7.55463 10.6906 7.67285C10.6834 8.03719 10.6789 8.40152 10.6744 8.76591C10.67 9.01383 10.6655 9.26175 10.6607 9.50966C10.6494 10.1155 10.6405 10.7214 10.6329 11.3273C9.88728 11.3273 9.14165 11.3273 8.37342 11.3273C8.37342 7.58927 8.37342 3.85127 8.37342 0Z" fill="#A6192E"/>
<path id="Vector_5" d="M21.324 1.99659C21.4726 1.99767 21.4726 1.99767 21.6243 1.99877C23.019 2.02822 24.1018 2.49525 25.1177 3.42195C26.3156 4.66694 26.6775 6.05604 26.6321 7.72535C26.553 8.95426 25.8987 10.0914 24.9873 10.9455C23.7589 11.8392 22.5272 12.1097 21 11.9636C19.6706 11.6806 18.6844 10.9788 17.9384 9.89396C17.4588 9.06663 17.4209 8.1177 17.6061 7.20433C17.8665 6.33817 18.358 5.71689 19.1392 5.21818C19.3968 5.21023 19.3968 5.21023 19.6709 5.34545C20.0047 5.79836 20.1796 6.09627 20.269 6.64205C20.1867 7.08508 20.0233 7.22276 19.6709 7.50909C19.4642 7.90485 19.4999 8.21707 19.538 8.65455C19.8636 9.2782 20.1831 9.5652 20.8671 9.8C21.7607 10.0119 22.5601 9.92788 23.3924 9.54545C24.1954 8.84196 24.4717 8.03439 24.5222 7.01591C24.4946 6.10844 24.2026 5.38699 23.5539 4.71953C22.7722 4.05046 22.1187 4.03672 21.0872 4.04489C20.0796 4.10261 19.3772 4.33836 18.6076 4.96364C18.2089 4.83636 18.2089 4.83636 18.0199 4.56342C17.9616 4.45137 17.9034 4.33931 17.8434 4.22386C17.7837 4.11279 17.7241 4.00172 17.6627 3.88729C17.5443 3.56364 17.5443 3.56364 17.55 3.29268C17.7381 2.94052 17.9878 2.8391 18.3501 2.65682C18.4722 2.59349 18.5944 2.53016 18.7203 2.46491C19.5787 2.10839 20.3924 1.98949 21.324 1.99659Z" fill="#A6192E"/>
<path id="Vector_6" d="M6.24684 2.54547C6.90278 2.9195 7.21309 3.37546 7.44304 4.07274C7.44304 4.32474 7.44304 4.57674 7.44304 4.83638C6.65354 4.83638 5.86405 4.83638 5.05063 4.83638C4.98484 4.58438 4.98484 4.58438 4.91772 4.32729C4.39855 4.03485 3.91422 4.03155 3.32278 4.07274C3.00995 4.18483 3.00995 4.18483 2.79114 4.32729C2.72436 4.62378 2.72436 4.62378 2.79114 4.96365C3.39527 5.43787 3.96155 5.59323 4.71835 5.73524C5.68717 5.92193 6.49 6.11687 7.15229 6.87274C7.22991 6.95937 7.30752 7.04599 7.38749 7.13524C7.84157 7.72938 7.79534 8.46075 7.70886 9.16365C7.40161 9.9693 6.75529 10.5407 5.98101 10.9455C4.60563 11.4679 3.35787 11.4678 1.9729 10.9892C1.24308 10.659 0.710704 10.1845 0.265823 9.54547C0.199367 9.41814 0.199367 9.41814 0.132911 9.29086C0.0664557 9.22723 0.0664557 9.22723 0 9.16365C0 8.86965 0 8.57565 0 8.27274C0.789494 8.27274 1.57899 8.27274 2.39241 8.27274C2.48013 8.52474 2.56785 8.77674 2.65823 9.03638C3.82178 9.22453 3.82178 9.22453 4.97587 9.0682C5.20147 8.91879 5.20147 8.91879 5.30815 8.66252C5.34478 8.39268 5.34478 8.39268 5.15862 8.1932C4.68107 7.84629 4.21165 7.71239 3.63014 7.58865C2.9048 7.42094 2.26027 7.19326 1.59494 6.87274C1.41401 6.79399 1.41401 6.79399 1.22943 6.71365C0.649662 6.28185 0.327024 5.79857 0.196252 5.10236C0.151233 4.29048 0.260018 3.7561 0.827062 3.14156C2.33072 1.77764 4.41011 1.63482 6.24684 2.54547Z" fill="#A6192E"/>
<path id="Vector_7" d="M42.9304 2.41818C46.9822 2.41818 46.9822 2.41818 48.0459 3.3429C48.4941 3.83526 48.6142 4.37884 48.712 5.01136C48.5961 5.81603 48.2318 6.57967 47.5906 7.12727C46.8259 7.60548 46.158 7.67204 45.2729 7.65227C44.7713 7.6444 44.7713 7.6444 44.2595 7.63636C44.2595 8.35036 44.2595 9.06436 44.2595 9.8C43.8209 9.8 43.3823 9.8 42.9304 9.8C42.9304 7.364 42.9304 4.928 42.9304 2.41818Z" fill="white"/>
<path id="Vector_8" d="M51.4035 4.80455C51.5645 4.80126 51.7256 4.79798 51.8915 4.7946C52.4239 4.84135 52.72 4.93518 53.1646 5.21818C53.6447 5.78889 53.7611 6.16363 53.7481 6.89162C53.7474 6.97529 53.7466 7.05896 53.7458 7.14516C53.7429 7.40975 53.7362 7.67411 53.7294 7.93864C53.7268 8.1191 53.7243 8.29957 53.7222 8.48004C53.7163 8.9201 53.7072 9.36003 53.6962 9.8C53.3015 9.8 52.9067 9.8 52.5 9.8C52.5 9.674 52.5 9.548 52.5 9.41818C52.3794 9.47856 52.2588 9.53893 52.1345 9.60114C51.3174 9.97731 50.621 10.0487 49.7421 9.76818C49.0982 9.43617 49.0982 9.43617 48.9114 9.03636C48.8382 8.42399 48.8354 7.91884 49.1772 7.38182C50.1207 6.66997 51.3578 6.70866 52.5 6.74545C52.3714 6.26239 52.3714 6.26239 52.1013 5.85455C51.8856 5.84196 51.6694 5.83804 51.4533 5.83864C51.3358 5.83831 51.2183 5.83798 51.0972 5.83764C50.7537 5.84176 50.7537 5.84176 50.3734 5.98182C50.3734 6.10782 50.3734 6.23382 50.3734 6.36364C49.9348 6.36364 49.4962 6.36364 49.0443 6.36364C49.1881 5.56787 49.1881 5.56787 49.5256 5.30469C49.7578 5.1799 49.999 5.071 50.2405 4.96364C50.6273 4.77845 50.9727 4.80977 51.4035 4.80455Z" fill="white"/>
<path id="Vector_9" d="M33.8093 5.09886C34.4179 5.52116 34.7418 5.95359 34.882 6.66342C34.939 7.42852 34.7408 7.93731 34.26 8.54616C33.7562 9.05208 33.2017 9.18036 32.4968 9.21932C31.7186 9.19266 31.2365 8.8775 30.6527 8.39205C30.1765 7.84831 30.2604 7.18827 30.2659 6.51328C30.3289 5.84181 30.5843 5.56338 31.1013 5.11477C31.9022 4.65941 33.0086 4.66092 33.8093 5.09886Z" fill="white"/>
<path id="Vector_10" d="M54.4937 4.96364C54.9323 4.96364 55.3709 4.96364 55.8228 4.96364C55.8661 5.06355 55.9095 5.16346 55.9541 5.26641C56.0413 5.46697 56.0413 5.46697 56.1301 5.67159C56.1908 5.8117 56.2514 5.95181 56.3139 6.09616C56.4417 6.38701 56.5741 6.67368 56.7116 6.96023C56.924 7.47351 57.043 7.98639 57.1519 8.52727C57.4475 8.42063 57.4475 8.42063 57.5413 8.11121C57.5828 7.98634 57.6242 7.86147 57.6669 7.73281C57.7128 7.59713 57.7588 7.46145 57.8061 7.32166C57.8534 7.17876 57.9006 7.03586 57.9494 6.88864C58.043 6.60774 58.1371 6.327 58.2318 6.04645C58.2733 5.92129 58.3147 5.79613 58.3574 5.66718C58.481 5.34545 58.481 5.34545 58.7468 4.96364C59.0345 4.92635 59.0345 4.92635 59.3616 4.93977C59.4702 4.94322 59.5788 4.94666 59.6907 4.95021C59.774 4.95464 59.8572 4.95907 59.943 4.96364C59.7018 5.85898 59.3554 6.69936 58.9813 7.5493C58.7381 8.10374 58.5108 8.66063 58.2979 9.22634C57.5086 11.3202 57.5086 11.3202 56.4873 11.9636C56.0866 12.0915 55.8172 12.1041 55.3991 12.0989C55.2794 12.0977 55.1596 12.0966 55.0362 12.0954C54.9449 12.0939 54.8536 12.0924 54.7595 12.0909C54.7595 11.7549 54.7595 11.4189 54.7595 11.0727C54.8508 11.0617 54.9421 11.0507 55.0362 11.0394C55.7891 10.9425 55.7891 10.9425 56.3794 10.5239C56.6045 9.81065 56.1974 9.11816 55.9225 8.45568C55.8809 8.35433 55.8393 8.25298 55.7965 8.14856C55.5073 7.44666 55.2084 6.74902 54.8981 6.0554C54.7463 5.69606 54.6181 5.33241 54.4937 4.96364Z" fill="white"/>
<path id="Vector_11" d="M44.2595 3.56364C44.7283 3.54789 44.7283 3.54789 45.2065 3.53182C45.3033 3.52718 45.4001 3.52255 45.4999 3.51777C46.1717 3.50696 46.5372 3.66921 47.0506 4.07273C47.3134 4.57596 47.2594 5.18015 47.1835 5.72727C46.8909 6.09596 46.6804 6.28638 46.2532 6.49091C45.9137 6.50004 45.5789 6.50273 45.2397 6.49886C44.9162 6.49624 44.5928 6.49361 44.2595 6.49091C44.2595 5.52491 44.2595 4.55891 44.2595 3.56364Z" fill="#A6192E"/>
<path id="Vector_12" d="M51.6028 7.6125C51.7708 7.61595 51.9387 7.61939 52.1116 7.62294C52.2398 7.62737 52.368 7.6318 52.5 7.63636C52.4697 8.14001 52.4402 8.442 52.1013 8.8375C51.5759 9.09952 51.089 9.15234 50.5063 9.03636C50.1972 8.80394 50.1182 8.71243 50.0494 8.33636C50.1076 8.01818 50.1076 8.01818 50.3168 7.80888C50.7597 7.57192 51.0993 7.5991 51.6028 7.6125Z" fill="#A6192E"/>
<path id="Vector_13" d="M62.7342 12.6C62.8219 12.6 62.9096 12.6 63 12.6C63 13.062 63 13.524 63 14C62.4737 14 61.9473 14 61.4051 14C61.4051 13.916 61.4051 13.832 61.4051 13.7455C61.623 13.6391 61.623 13.6391 61.8453 13.5307C62.2978 13.2869 62.4901 13.0429 62.7342 12.6Z" fill="white"/>
<path id="Vector_14" d="M61.538 0C62.0204 0 62.5029 0 63 0C63 0.462 63 0.924 63 1.4C62.9123 1.4 62.8246 1.4 62.7342 1.4C62.6793 1.3055 62.6245 1.211 62.568 1.11364C62.2895 0.694458 61.9695 0.520832 61.538 0.254545C61.538 0.170545 61.538 0.0865454 61.538 0Z" fill="white"/>
<path id="Vector_15" d="M19.4383 5.22614C19.6709 5.34545 19.6709 5.34545 19.8038 5.72727C19.6722 5.81127 19.5406 5.89527 19.4051 5.98182C19.4051 5.85582 19.4051 5.72982 19.4051 5.6C19.2735 5.726 19.1419 5.852 19.0063 5.98182C18.8309 5.89782 18.6554 5.81382 18.4747 5.72727C19.0571 5.216 19.0571 5.216 19.4383 5.22614Z" fill="#A6192E"/>
<path id="Vector_16" d="M23.7911 9.16364C24.0104 9.37364 24.2297 9.58364 24.4557 9.8C24.1899 10.0545 24.1899 10.0545 23.841 10.0705C23.7368 10.0652 23.6326 10.06 23.5253 10.0545C23.5253 9.97055 23.5253 9.88655 23.5253 9.8C23.613 9.8 23.7008 9.8 23.7911 9.8C23.7541 9.67794 23.7541 9.67794 23.7164 9.55341C23.6876 9.42347 23.6876 9.42347 23.6582 9.29091C23.7021 9.24891 23.746 9.20691 23.7911 9.16364Z" fill="#A6192E"/>
<path id="Vector_17" d="M35.0886 3.43636C35.6036 3.65909 35.6036 3.65909 35.7532 3.94545C35.49 4.07145 35.49 4.07145 35.2215 4.2C35.1338 3.99 35.0461 3.78 34.9557 3.56364C34.9996 3.52164 35.0434 3.47964 35.0886 3.43636Z" fill="#A6192E"/>
</g>
<defs>
<clipPath id="clip0_0_7">
<rect width="63" height="14" fill="white"/>
</clipPath>
</defs>
</svg>
