<svg preserveAspectRatio="none" width="100%" height="100%" overflow="visible" style="display: block;" viewBox="0 0 18.6095 25.0004" fill="none" xmlns="http://www.w3.org/2000/svg">
<g id="&#195;&#145;&#195;&#171;&#195;&#174;&#195;&#169; 1">
<path id="Vector" d="M3.12411 1.13873C4.38485 0.147478 6.80897 -0.136455 7.80651 0.0570217C8.80467 0.249242 9.32606 0.807688 9.33234 1.48737L9.39013 10.1568C9.39453 10.8377 9.04087 11.4634 8.60366 11.5475C8.16456 11.6298 7.51755 11.2253 7.162 10.6461L2.61341 3.21233C2.26037 2.63253 1.54928 2.37686 3.12348 1.13811L3.12411 1.13873ZM1.61398 17.6239L6.19336 16.0032C6.83158 15.7764 7.40322 15.147 7.46729 14.5998C7.52948 14.0527 7.06526 13.4038 6.43646 13.1544L1.59891 11.236C0.968851 10.9872 0.242684 11.5771 0.0510913 12.5432C0.0510913 12.5432 -0.0638642 15.9064 0.0510913 16.6031C0.167303 17.2985 0.975761 17.8506 1.61461 17.6232L1.61398 17.6239ZM9.60182 18.4336C9.61501 17.7507 9.25068 17.1615 8.79148 17.1201C8.33229 17.0773 7.60361 17.4693 7.16828 17.9888L3.97403 21.8194C3.53933 22.3402 3.75542 23.5626 4.38925 23.7944L7.72924 24.9546C8.36495 25.1858 9.48498 24.5011 9.49818 23.8208L9.60182 18.4342V18.4336ZM17.5425 17.5416L13.5367 16.3901C12.8872 16.2036 12.1503 16.2211 11.9003 16.4322C11.6503 16.6414 11.7125 17.301 12.0391 17.8971L14.5669 22.5236C14.8935 23.1191 16.2014 23.0173 16.5613 22.4388C16.5613 22.4388 18.0853 20.1906 18.3655 19.3482C18.6456 18.5033 18.1908 17.7275 17.5419 17.5403L17.5425 17.5416ZM18.5181 11.0362C18.3378 10.4508 17.0852 8.72517 16.4068 8.1372C15.729 7.54798 14.9539 7.62147 14.5173 8.13909L11.9355 11.2146C11.4983 11.7322 11.3814 12.5526 11.6729 13.0351C11.9638 13.5175 12.7414 13.7914 13.401 13.6431L17.8661 12.8152C18.672 12.6217 18.7003 11.6217 18.5168 11.0362H18.5181Z" fill="var(--fill-0, white)"/>
</g>
</svg>
