<svg width="24" height="17" viewBox="0 0 24 17" fill="none" xmlns="http://www.w3.org/2000/svg">
<g clip-path="url(#clip0_5057_18208)">
<path d="M23.1583 2.60833C22.8917 1.58333 22.0917 0.775 21.0667 0.5C19.225 0 11.825 0 11.825 0C11.825 0 4.43333 0 2.58333 0.5C1.56667 0.775 0.766667 1.58333 0.5 2.60833C0 4.46667 0 8.33334 0 8.33334C0 8.33334 0 12.2083 0.491667 14.0667C0.766667 15.0917 1.56667 15.9 2.58333 16.175C4.43333 16.6667 11.825 16.6667 11.825 16.6667C11.825 16.6667 19.225 16.6667 21.0667 16.175C22.0833 15.9 22.8917 15.0917 23.1583 14.0667C23.6583 12.2083 23.6583 8.33334 23.6583 8.33334C23.6583 8.33334 23.6583 4.46667 23.1583 2.60833ZM9.40833 11.8583V4.81667L15.5917 8.33334L9.40833 11.8583Z" fill="white"/>
</g>
<defs>
<clipPath id="clip0_5057_18208">
<rect width="23.6583" height="16.6667" fill="white"/>
</clipPath>
</defs>
</svg>
