<svg preserveAspectRatio="none" width="100%" height="100%" overflow="visible" style="display: block;" viewBox="0 0 21.0402 20.8333" fill="none" xmlns="http://www.w3.org/2000/svg">
<g id="Group">
<g id="Group_2">
<path id="Vector" d="M4.63052 6.94164H0.119998V20.8333H4.63052V6.94164Z" fill="var(--fill-0, white)"/>
<path id="Vector_2" d="M2.37573 0C0.921267 0 -0.0287599 1.04251 0.000665691 2.43112C-0.0287599 3.75807 0.919866 4.83141 2.34491 4.83141C3.76995 4.83141 4.77882 3.75807 4.77882 2.43112C4.7494 1.04251 3.8302 0 2.37573 0Z" fill="var(--fill-0, white)"/>
</g>
<path id="Vector_3" d="M15.8473 6.61516C13.8828 6.61516 12.5334 7.54697 11.7809 8.3891V6.94164H7.27042V20.8333H11.7809V13.0846C11.7809 12.6684 11.8398 12.2242 11.9589 11.9566C12.256 11.1257 12.9972 10.2653 14.2443 10.2653C15.8767 10.2653 16.5297 11.5418 16.5297 13.4111V20.8333H21.0402V12.8478C21.0402 8.57406 18.8151 6.61656 15.8473 6.61656V6.61516Z" fill="var(--fill-0, white)"/>
</g>
</svg>
