<svg preserveAspectRatio="none" width="100%" height="100%" overflow="visible" style="display: block;" viewBox="0 0 17.9991 18" fill="none" xmlns="http://www.w3.org/2000/svg">
<g id="Group">
<path id="Vector" d="M17.9987 7.27104L17.8359 1.37207C17.8177 0.712467 17.2868 0.181561 16.6271 0.163304L10.7281 0.000498484C10.3835 -0.0091381 10.0575 0.121261 9.81451 0.364208L0.363629 9.81514C-0.12121 10.3 -0.12121 11.0888 0.363629 11.5737L6.42545 17.6354C6.91138 18.1215 7.69796 18.1216 8.18402 17.6355L17.6349 8.1846C17.8755 7.94405 18.0081 7.61104 17.9987 7.27104ZM15.2977 5.69165C14.4713 6.51796 13.1339 6.51804 12.3075 5.69165C11.4831 4.86726 11.4831 3.52586 12.3075 2.70151C13.1339 1.87516 14.4713 1.87512 15.2977 2.70151C16.122 3.52586 16.122 4.86726 15.2977 5.69165Z" fill="#A6192E"/>
</g>
</svg>
