<svg preserveAspectRatio="none" width="100%" height="100%" overflow="visible" style="display: block;" viewBox="0 0 40 40" fill="none" xmlns="http://www.w3.org/2000/svg">
<g id="gridicons:play">
<path id="Vector" d="M20 3.33333C16.7036 3.33333 13.4813 4.31082 10.7405 6.14217C7.99968 7.97353 5.86347 10.5765 4.60201 13.6219C3.34055 16.6674 3.01049 20.0185 3.65358 23.2515C4.29667 26.4845 5.88401 29.4542 8.21489 31.7851C10.5458 34.116 13.5155 35.7033 16.7485 36.3464C19.9815 36.9895 23.3326 36.6595 26.3781 35.398C29.4235 34.1365 32.0265 32.0003 33.8578 29.2595C35.6892 26.5187 36.6667 23.2964 36.6667 20C36.6667 17.8113 36.2356 15.644 35.398 13.6219C34.5604 11.5998 33.3328 9.76253 31.7851 8.21489C30.2375 6.66724 28.4001 5.43959 26.3781 4.60201C24.356 3.76443 22.1887 3.33333 20 3.33333ZM16.6667 27.5V12.5L26.6667 20L16.6667 27.5Z" fill="#A6192E"/>
</g>
</svg>
