<svg preserveAspectRatio="none" width="100%" height="100%" overflow="visible" style="display: block;" viewBox="0 0 20 20.7193" fill="none" xmlns="http://www.w3.org/2000/svg">
<g id="Group">
<g id="Vector">
</g>
<path id="Vector_2" d="M11.26 0.205344C11.4165 0.0933852 11.5997 0.0244426 11.7911 0.00539977C11.9826 -0.0136431 12.1758 0.0178801 12.3512 0.0968219C12.5267 0.175764 12.6785 0.299361 12.7912 0.455275C12.904 0.611188 12.9739 0.793961 12.994 0.985344L13 1.09934V16.7113C13.0001 16.9038 12.9496 17.0929 12.8538 17.2597C12.7579 17.4266 12.6199 17.5654 12.4536 17.6622C12.2874 17.7591 12.0986 17.8106 11.9061 17.8117C11.7137 17.8128 11.5244 17.7633 11.357 17.6683L11.261 17.6063L4.68 12.9053H2C1.49542 12.9055 1.00943 12.7149 0.639452 12.3718C0.269471 12.0288 0.0428434 11.5585 0.00500021 11.0553L1.00268e-07 10.9053V6.90534C-0.000159579 6.40077 0.190406 5.91478 0.533497 5.5448C0.876587 5.17481 1.34684 4.94819 1.85 4.91034L2 4.90534H4.68L11.26 0.205344ZM17.667 3.68834C18.401 4.3449 18.9881 5.14894 19.3901 6.04792C19.7922 6.94689 20 7.92057 20 8.90534C20 9.89011 19.7922 10.8638 19.3901 11.7628C18.9881 12.6617 18.401 13.4658 17.667 14.1223C17.5694 14.2114 17.4551 14.2802 17.3308 14.3248C17.2064 14.3694 17.0745 14.3889 16.9426 14.3823C16.8106 14.3756 16.6813 14.3428 16.5621 14.2859C16.4429 14.229 16.3362 14.149 16.2481 14.0506C16.1599 13.9521 16.0922 13.8372 16.0487 13.7125C16.0053 13.5877 15.987 13.4556 15.9949 13.3237C16.0028 13.1919 16.0367 13.0629 16.0948 12.9442C16.1528 12.8255 16.2338 12.7195 16.333 12.6323C16.8574 12.1634 17.277 11.589 17.5642 10.9467C17.8515 10.3045 18 9.60889 18 8.90534C18 7.42534 17.358 6.09534 16.333 5.17834C16.2338 5.09114 16.1528 4.98515 16.0948 4.86648C16.0367 4.7478 16.0028 4.61881 15.9949 4.48694C15.987 4.35508 16.0053 4.22295 16.0487 4.0982C16.0922 3.97345 16.1599 3.85855 16.2481 3.76013C16.3362 3.66171 16.4429 3.58172 16.5621 3.52479C16.6813 3.46786 16.8106 3.43511 16.9426 3.42844C17.0745 3.42176 17.2064 3.44129 17.3308 3.4859C17.4551 3.53051 17.5694 3.59932 17.667 3.68834ZM15.667 5.92434C16.0862 6.29941 16.4217 6.75868 16.6513 7.27217C16.881 7.78566 16.9998 8.34182 17 8.90434C17.0001 9.4672 16.8815 10.0238 16.6518 10.5376C16.4221 11.0515 16.0865 11.5111 15.667 11.8863C15.4774 12.0548 15.2308 12.1448 14.9773 12.1383C14.7237 12.1318 14.4821 12.0292 14.3014 11.8513C14.1206 11.6733 14.0143 11.4333 14.0038 11.1799C13.9933 10.9265 14.0796 10.6786 14.245 10.4863L14.333 10.3963C14.743 10.0283 15 9.49734 15 8.90534C15.0002 8.39345 14.804 7.90098 14.452 7.52934L14.333 7.41434C14.2338 7.32714 14.1528 7.22115 14.0948 7.10248C14.0367 6.9838 14.0028 6.85481 13.9949 6.72294C13.987 6.59108 14.0053 6.45895 14.0487 6.3342C14.0922 6.20945 14.1599 6.09455 14.2481 5.99613C14.3362 5.89771 14.4429 5.81772 14.5621 5.76079C14.6813 5.70386 14.8106 5.67111 14.9426 5.66444C15.0745 5.65776 15.2064 5.67729 15.3308 5.7219C15.4551 5.76651 15.5694 5.83532 15.667 5.92434Z" fill="#A6192E"/>
</g>
</svg>
